<svg version="1.1" id="Layer_1" xmlns="http://www.w3.org/2000/svg" xmlns:xlink="http://www.w3.org/1999/xlink" x="0px" y="0px"
	 width="100%" viewBox="0 0 2000 1500" enable-background="new 0 0 2000 1500" xml:space="preserve">
<path fill="#F9F9F9" opacity="1.000000" stroke="none" 
	d="
M1786.000000,1501.000000 
	C1190.666870,1501.000000 595.833679,1501.000000 1.000399,1501.000000 
	C1.000266,1001.000305 1.000266,501.000641 1.000133,1.000734 
	C667.666138,1.000490 1334.332275,1.000490 2000.998779,1.000245 
	C2000.999268,500.999298 2000.999268,1000.998596 2000.999634,1500.999023 
	C1929.500000,1501.000000 1858.000000,1501.000000 1786.000000,1501.000000 
M1746.353271,708.630493 
	C1746.391357,700.600403 1746.400879,700.569519 1738.863037,698.233154 
	C1716.976440,691.449707 1695.096802,684.642517 1673.164185,678.010803 
	C1671.132446,677.396484 1668.486938,677.318909 1666.559326,678.083374 
	C1646.351196,686.097900 1626.260498,694.408142 1606.055542,702.430542 
	C1603.077637,703.612915 1602.171143,705.086670 1602.175415,708.217896 
	C1602.215088,737.366455 1602.154663,766.515869 1601.904907,795.663208 
	C1601.873657,799.314636 1602.983276,800.805176 1606.442993,801.852905 
	C1629.165039,808.734009 1651.786255,815.949524 1674.530518,822.755127 
	C1677.246338,823.567749 1680.804077,823.325439 1683.465088,822.281311 
	C1703.082642,814.583862 1722.534912,806.466187 1742.136719,798.727661 
	C1745.364380,797.453430 1746.147339,795.824280 1746.141846,792.544312 
	C1746.095215,764.894958 1746.251709,737.245178 1746.353271,708.630493 
M1493.932129,711.153259 
	C1497.208740,711.643066 1500.485352,712.132874 1503.757080,712.624573 
	C1503.757080,740.296997 1503.757080,767.969421 1503.757080,795.987915 
	C1500.308838,795.987915 1497.197998,795.987915 1494.049072,795.987915 
	C1494.049072,798.128967 1494.049072,799.919922 1494.049072,801.835938 
	C1509.654053,801.835938 1525.152954,802.706543 1540.510254,801.605103 
	C1557.849121,800.361511 1569.122070,790.259277 1574.119873,773.507751 
	C1577.824585,761.090271 1577.918457,748.497559 1574.639526,736.053833 
	C1570.365234,719.833069 1560.304688,708.366394 1543.225586,706.827271 
	C1526.949829,705.360535 1510.438354,706.511230 1493.886230,706.511230 
	C1493.886230,707.682495 1493.886230,709.010132 1493.932129,711.153259 
M1240.830444,802.078491 
	C1241.422241,800.169006 1242.014160,798.259460 1242.770874,795.817749 
	C1238.567383,795.817749 1235.440674,795.817749 1232.042358,795.817749 
	C1232.042358,781.190979 1232.009155,766.879517 1232.054321,752.568420 
	C1232.083008,743.508850 1237.337524,738.120300 1246.908325,737.168701 
	C1256.548828,736.210205 1264.133545,740.768372 1264.623291,749.779236 
	C1265.450928,765.006592 1264.850464,780.311523 1264.850464,795.924561 
	C1261.715210,795.924561 1258.592041,795.924561 1255.326416,795.924561 
	C1255.326416,798.040039 1255.326416,799.814392 1255.326416,801.839478 
	C1265.902588,801.839478 1276.310181,801.839478 1286.699219,801.839478 
	C1286.699219,799.755066 1286.699219,797.887573 1286.699219,795.655212 
	C1283.302002,795.655212 1280.217529,795.655212 1276.887207,795.655212 
	C1276.887207,789.623169 1276.979370,783.968445 1276.867065,778.317871 
	C1276.661987,768.006714 1276.790283,757.659180 1275.915649,747.400513 
	C1275.222046,739.264587 1271.080566,732.913025 1262.609253,730.513611 
	C1250.441528,727.067383 1238.363037,730.188782 1232.912476,740.456116 
	C1232.868286,740.539429 1232.377686,740.385742 1231.843018,740.304260 
	C1231.843018,726.036011 1231.843018,711.739075 1231.843018,697.228699 
	C1224.608032,698.594543 1217.659912,699.906189 1210.588623,701.241150 
	C1209.976440,709.794556 1218.142212,705.067505 1220.403564,708.422546 
	C1220.403564,737.551086 1220.403564,766.602051 1220.403564,796.060913 
	C1216.909180,796.060913 1213.817383,796.060913 1210.777588,796.060913 
	C1210.777588,798.249146 1210.777588,800.010071 1210.777588,802.089844 
	C1220.684082,802.089844 1230.319946,802.089844 1240.830444,802.078491 
M497.997589,780.523315 
	C498.289856,772.576355 499.501038,764.530945 498.662781,756.705078 
	C497.346954,744.420471 491.701691,734.185242 478.915619,730.494568 
	C467.084106,727.079407 456.557281,729.360718 448.882690,742.044617 
	C448.882690,726.196899 448.882690,711.834351 448.882690,697.205811 
	C441.370422,698.607239 434.395813,699.908386 427.450806,701.203979 
	C427.450806,703.041138 427.450806,704.456177 427.450806,705.872742 
	C428.829224,706.223206 429.969208,706.796326 431.082489,706.748413 
	C436.660583,706.508301 437.645844,709.299866 437.595154,714.419250 
	C437.324768,741.728271 437.467804,769.041382 437.467804,796.353088 
	C437.467804,798.143372 437.467773,799.933594 437.467773,801.882080 
	C445.638092,803.121643 444.305115,794.301392 449.008240,791.966492 
	C452.383636,797.516174 456.887482,801.671875 463.534729,803.062134 
	C480.055206,806.517334 492.114502,798.914429 497.997589,780.523315 
M838.342896,723.310181 
	C838.342896,725.096924 838.342896,726.883606 838.342896,728.666992 
	C841.960449,728.666992 845.018677,728.666992 848.056702,728.666992 
	C848.056702,720.927185 848.056702,713.506470 848.056702,705.942322 
	C824.328857,705.942322 800.871338,705.942322 777.264404,705.942322 
	C777.264404,708.024658 777.264404,709.965332 777.264404,712.171631 
	C780.621826,712.171631 783.761963,712.171631 787.055420,712.171631 
	C787.055420,740.164795 787.055420,767.890198 787.055420,795.937256 
	C783.583435,795.937256 780.466187,795.937256 777.355164,795.937256 
	C777.355164,798.158325 777.355164,800.051208 777.355164,801.923340 
	C789.136841,801.923340 800.608582,801.923340 812.151978,801.923340 
	C812.151978,799.859802 812.151978,797.977417 812.151978,795.591431 
	C807.765503,795.591431 803.694885,795.591431 799.522278,795.591431 
	C799.522278,782.828796 799.522278,770.576904 799.522278,758.245728 
	C808.666809,758.245728 817.587585,758.245728 826.893677,758.245728 
	C826.893677,761.937378 826.893677,765.367493 826.893677,768.823364 
	C829.725342,768.823364 832.166504,768.823364 834.761719,768.823364 
	C834.761719,759.219910 834.761719,749.810303 834.761719,740.229065 
	C832.072571,740.229065 829.626038,740.229065 826.804077,740.229065 
	C826.804077,743.784607 826.804077,747.235962 826.804077,750.868225 
	C817.484253,750.868225 808.539856,750.868225 799.658813,750.868225 
	C799.658813,738.079041 799.658813,725.525208 799.658813,712.994202 
	C812.733215,712.994202 825.445557,712.994202 838.342896,712.994202 
	C838.342896,716.376343 838.342896,719.365723 838.342896,723.310181 
M981.364441,713.614014 
	C981.364441,718.577942 981.364441,723.541870 981.364441,728.740723 
	C984.867859,728.740723 987.932373,728.740723 991.373840,728.740723 
	C991.373840,723.440247 991.373840,718.327026 991.373840,712.916748 
	C999.638672,712.916748 1007.527527,712.916748 1015.429810,712.916748 
	C1015.429810,740.624817 1015.429810,768.018372 1015.429810,795.859741 
	C1011.039551,795.859741 1006.947449,795.859741 1002.743286,795.859741 
	C1002.743286,798.110779 1002.743286,799.910706 1002.743286,801.788696 
	C1015.450378,801.788696 1027.999146,801.788696 1040.566895,801.788696 
	C1040.566895,799.698853 1040.566895,797.925415 1040.566895,795.737061 
	C1036.249512,795.737061 1032.156372,795.737061 1028.054932,795.737061 
	C1028.054932,767.792603 1028.054932,740.267517 1028.054932,712.977661 
	C1036.213257,712.977661 1043.960083,712.977661 1051.989014,712.977661 
	C1051.989014,718.470886 1051.989014,723.592529 1051.989014,728.708252 
	C1055.380371,728.708252 1058.469849,728.708252 1061.714355,728.708252 
	C1061.714355,721.008667 1061.714355,713.585693 1061.714355,706.032959 
	C1034.927246,706.032959 1008.333740,706.032959 981.364441,706.032959 
	C981.364441,708.402161 981.364441,710.533020 981.364441,713.614014 
M1447.113403,756.500854 
	C1447.113403,742.043396 1447.113403,727.585938 1447.113403,712.954041 
	C1455.377686,712.954041 1463.255615,712.954041 1471.520996,712.954041 
	C1471.520996,718.416809 1471.520996,723.525024 1471.520996,728.678711 
	C1474.977295,728.678711 1478.032227,728.678711 1481.106445,728.678711 
	C1481.106445,720.957886 1481.106445,713.540527 1481.106445,706.095337 
	C1454.300049,706.095337 1427.755005,706.095337 1401.270996,706.095337 
	C1401.270996,713.825256 1401.270996,721.253906 1401.270996,728.699158 
	C1404.609741,728.699158 1407.674561,728.699158 1411.196655,728.699158 
	C1411.196655,723.188416 1411.196655,717.947815 1411.196655,712.918701 
	C1419.411011,712.918701 1427.155029,712.918701 1434.958374,712.918701 
	C1434.958374,740.682678 1434.958374,768.121460 1434.958374,795.897461 
	C1430.635376,795.897461 1426.516846,795.897461 1422.385254,795.897461 
	C1422.385254,798.135742 1422.385254,800.031677 1422.385254,801.858582 
	C1435.133911,801.858582 1447.577881,801.858582 1460.042847,801.858582 
	C1460.042847,799.825684 1460.042847,798.031616 1460.042847,795.780151 
	C1455.803223,795.780151 1451.714966,795.780151 1447.113403,795.780151 
	C1447.113403,782.719116 1447.113403,770.109985 1447.113403,756.500854 
M279.085541,717.528931 
	C286.964020,710.948059 296.114624,710.364441 305.516632,712.534729 
	C315.040466,714.733337 318.730103,719.878479 318.814789,729.653809 
	C318.826233,730.972534 318.816376,732.291321 318.816376,733.734131 
	C322.204346,733.734131 325.284882,733.734131 328.582092,733.734131 
	C328.582092,724.408020 328.582092,715.325684 328.582092,706.019897 
	C325.354065,706.019897 322.263824,706.019897 319.184723,706.019897 
	C318.846558,708.159851 318.537506,710.115540 318.221161,712.117371 
	C314.259979,709.833862 311.075195,707.348572 307.464478,706.027527 
	C290.811981,699.935059 271.887115,706.984253 263.051758,722.400696 
	C255.316467,735.897644 254.190887,750.677307 256.734222,765.475220 
	C258.075928,773.281677 260.983917,781.387817 265.278412,787.998596 
	C274.049133,801.499817 287.620758,805.807617 303.194824,803.028931 
	C316.587189,800.639587 325.160339,792.277466 330.122101,779.522217 
	C328.225952,778.601257 326.635223,777.828674 324.994904,777.031982 
	C324.555206,777.615356 324.214508,777.961243 323.996429,778.372253 
	C317.186981,791.206848 307.074097,796.689453 293.893921,794.677429 
	C280.583618,792.645569 271.886841,784.593506 269.977509,770.380554 
	C268.657928,760.557617 268.882263,750.454407 269.221069,740.503845 
	C269.508789,732.054565 272.129791,724.143066 279.085541,717.528931 
M950.681824,739.502747 
	C955.463684,742.611511 957.436707,747.481934 957.550232,752.721252 
	C957.859192,766.983032 957.656433,781.255920 957.656433,795.870483 
	C954.355652,795.870483 951.235657,795.870483 947.988892,795.870483 
	C947.988892,798.117981 947.988892,800.014465 947.988892,801.816528 
	C958.531738,801.816528 968.788208,801.816528 979.162476,801.816528 
	C979.162476,799.778076 979.162476,798.011963 979.162476,795.720825 
	C975.754822,795.720825 972.532837,795.720825 969.123047,795.720825 
	C969.123047,793.203979 969.127747,791.212219 969.122253,789.220459 
	C969.087769,776.730469 969.265137,764.235107 968.951416,751.752075 
	C968.670654,740.585876 963.805420,733.472046 955.319458,730.671265 
	C943.292236,726.701721 932.952087,729.973145 925.418030,740.092773 
	C925.214172,740.366638 924.656982,740.377380 923.880249,740.641479 
	C923.880249,736.705261 923.880249,733.087524 923.880249,729.284790 
	C916.741943,730.684631 909.949097,732.016724 903.195190,733.341187 
	C903.195190,735.125732 903.195190,736.551086 903.195190,737.987549 
	C906.622314,738.715515 909.801758,739.390808 912.725464,740.011841 
	C912.725464,758.908630 912.725464,777.281982 912.725464,796.045166 
	C909.310791,796.045166 906.231445,796.045166 903.144897,796.045166 
	C903.144897,798.210510 903.144897,799.973389 903.144897,801.771729 
	C913.754456,801.771729 924.155212,801.771729 934.503845,801.771729 
	C934.503845,799.692261 934.503845,797.932373 934.503845,795.778137 
	C931.153625,795.778137 928.051208,795.778137 924.789734,795.778137 
	C924.789734,779.770996 924.618164,764.157349 924.893372,748.551636 
	C924.976990,743.812988 928.503357,740.832825 932.657104,738.977356 
	C938.421570,736.402466 944.249146,736.338806 950.681824,739.502747 
M364.847931,801.820862 
	C377.311340,805.903076 388.347748,804.413330 397.447449,792.225281 
	C397.695099,796.848938 397.873047,800.170471 398.064667,803.747925 
	C405.294800,802.330139 412.065125,801.002563 418.876923,799.666809 
	C419.924286,790.807495 411.303192,796.167725 408.734131,791.712280 
	C408.734131,771.541382 408.734131,750.612854 408.734131,729.263977 
	C401.377197,730.670105 394.432526,731.997498 387.395386,733.342529 
	C387.395386,735.078247 387.395386,736.490601 387.395386,737.957764 
	C390.826508,738.694824 394.022736,739.381348 397.328827,740.091553 
	C397.328827,754.470642 397.373596,768.436157 397.306824,782.401123 
	C397.280029,788.007568 394.198975,791.713318 389.314606,794.025879 
	C376.491943,800.097107 364.693176,793.086853 364.234589,778.634583 
	C363.770081,763.995850 364.072083,749.332764 364.039490,734.680359 
	C364.035553,732.921509 364.038940,731.162598 364.038940,729.219116 
	C356.589874,730.658203 349.760162,731.977661 342.719788,733.337769 
	C342.719788,734.944214 342.719788,736.371521 342.719788,737.919373 
	C346.182983,738.711792 349.505096,739.471863 352.948334,740.259705 
	C352.948334,754.391663 352.668274,768.051392 353.052612,781.692505 
	C353.285828,789.968018 355.887512,797.452271 364.847931,801.820862 
M638.333130,733.789429 
	C633.923340,736.650208 630.223816,740.297180 631.191895,745.894287 
	C631.617493,748.355225 633.975281,751.737854 636.105774,752.318970 
	C638.574219,752.992310 642.835632,751.893555 644.328003,749.997375 
	C645.826111,748.093933 645.128845,744.239258 644.866516,741.286499 
	C644.765198,740.145630 643.214417,739.133484 641.953247,737.616882 
	C649.881775,735.344788 657.473999,733.712097 663.913086,738.866943 
	C671.820618,745.197266 669.194397,754.492676 669.524597,763.406982 
	C666.218323,763.406982 663.380249,763.105042 660.628845,763.465332 
	C653.256714,764.430725 645.656128,764.832275 638.639832,767.032104 
	C630.015259,769.736450 626.910767,776.711670 627.825500,787.158813 
	C628.545044,795.375488 633.735474,801.372070 642.006287,803.017029 
	C653.236084,805.250671 663.105896,803.346863 669.691284,792.421570 
	C672.470764,802.273499 676.797668,805.210632 685.219543,803.391846 
	C688.949951,802.586243 692.706055,801.790222 690.593201,795.938965 
	C687.538635,795.938965 684.324768,795.938965 680.952271,795.938965 
	C680.952271,780.613342 681.060730,765.796997 680.918274,750.983032 
	C680.802734,738.967285 674.421265,731.654480 662.678223,729.707947 
	C654.380249,728.332458 646.445984,729.517822 638.333130,733.789429 
M1398.999512,793.441284 
	C1398.999512,788.328369 1398.999512,783.215454 1398.999512,778.011353 
	C1395.458740,778.011353 1392.345703,778.011353 1388.863037,778.011353 
	C1388.863037,783.828552 1388.863037,789.436951 1388.863037,795.096863 
	C1377.078491,795.096863 1365.666382,795.096863 1354.089600,795.096863 
	C1354.089600,767.370300 1354.089600,739.856567 1354.089600,712.034302 
	C1357.498047,712.034302 1360.608032,712.034302 1363.764404,712.034302 
	C1363.764404,709.809875 1363.764404,707.898376 1363.764404,706.069214 
	C1352.897827,706.069214 1342.300537,706.069214 1331.564453,706.069214 
	C1331.564453,708.129395 1331.564453,709.916260 1331.564453,712.212036 
	C1334.977661,712.212036 1338.217773,712.212036 1341.585449,712.212036 
	C1341.585449,740.266479 1341.585449,767.811157 1341.585449,795.898438 
	C1338.102295,795.898438 1334.884155,795.898438 1331.607544,795.898438 
	C1331.607544,798.217041 1331.607544,799.990112 1331.607544,801.928833 
	C1354.101074,801.928833 1376.367920,801.928833 1398.999512,801.928833 
	C1398.999512,799.366394 1398.999512,796.891296 1398.999512,793.441284 
M1098.925781,794.908508 
	C1084.907593,792.686584 1077.824585,782.322083 1079.508789,766.125000 
	C1095.567993,766.125000 1111.665283,766.125000 1127.973755,766.125000 
	C1127.973755,763.171326 1128.147827,760.523499 1127.944458,757.904968 
	C1126.911621,744.604004 1119.289429,734.258423 1107.997314,730.659119 
	C1095.849854,726.787231 1083.113647,730.514282 1075.163330,740.267578 
	C1064.234863,753.674438 1063.587280,778.460815 1074.139404,792.144043 
	C1081.772827,802.042542 1092.295044,805.153442 1104.335083,803.293091 
	C1115.165894,801.619446 1122.541870,795.469849 1126.783569,785.069763 
	C1125.122437,784.104309 1123.776855,783.322266 1122.213623,782.413757 
	C1117.192749,791.469604 1109.621582,795.331909 1098.925781,794.908508 
M1148.035522,741.550781 
	C1138.132568,757.367004 1137.834717,773.694702 1146.731812,789.766968 
	C1152.958984,801.016113 1163.855469,804.711365 1176.132935,803.644836 
	C1187.694214,802.640564 1195.769653,796.407715 1200.126343,785.143677 
	C1198.608398,784.200867 1197.261353,783.364197 1195.836670,782.479309 
	C1195.137695,783.455261 1194.657593,784.112244 1194.191162,784.778809 
	C1188.244629,793.277527 1179.670776,796.671204 1169.894775,794.392883 
	C1161.021240,792.324829 1155.202759,785.962891 1153.896729,775.632080 
	C1153.108765,769.400635 1152.865967,762.963806 1153.456543,756.721313 
	C1154.926880,741.180542 1168.524414,730.942993 1186.625854,738.053955 
	C1185.610718,739.009094 1184.606079,739.792847 1183.798096,740.743652 
	C1180.882812,744.173828 1180.526611,747.982544 1182.735596,751.838196 
	C1184.929443,755.667419 1188.649292,755.908997 1192.391724,755.029297 
	C1196.585571,754.043640 1198.076416,750.830383 1198.250244,746.800903 
	C1198.559082,739.650452 1194.118896,733.860962 1186.118408,731.032166 
	C1172.604248,726.253906 1158.204346,730.069031 1148.035522,741.550781 
M559.959351,747.485291 
	C554.156616,761.887817 554.142334,776.176453 562.066772,789.713135 
	C568.663330,800.981445 579.479736,804.830811 591.973145,803.602051 
	C603.333435,802.484680 611.223511,796.278259 615.522522,785.169922 
	C614.019958,784.228088 612.704346,783.403503 611.244446,782.488464 
	C610.453430,783.615723 609.878174,784.405640 609.333740,785.216248 
	C603.617493,793.725891 595.372559,796.205566 585.792725,794.452332 
	C576.041565,792.667603 570.745544,785.787292 569.444336,776.588440 
	C568.406006,769.247498 568.261597,761.516602 569.334412,754.195374 
	C571.557129,739.026917 587.740723,731.272888 603.179504,738.615112 
	C601.999451,738.996521 601.221252,739.027954 600.770142,739.428223 
	C596.643188,743.089233 595.648132,747.866394 598.101990,751.841003 
	C600.054871,755.004150 604.861755,756.360352 608.771362,754.851257 
	C612.644958,753.356079 614.674866,748.552490 613.563599,743.410400 
	C612.144714,736.845581 607.555420,733.234924 601.644531,731.089600 
	C585.530640,725.241089 568.743774,731.656555 559.959351,747.485291 
M711.075073,782.490601 
	C711.075073,786.901062 711.075073,791.311523 711.075073,796.116577 
	C707.236145,796.116577 704.157776,796.116577 701.212158,796.116577 
	C701.212158,798.287781 701.212158,800.042786 701.212158,801.718872 
	C711.861450,801.718872 722.245972,801.718872 732.449097,801.718872 
	C732.449097,799.600647 732.449097,797.857178 732.449097,795.709045 
	C729.014160,795.709045 725.908936,795.709045 722.326477,795.709045 
	C722.326477,762.749756 722.326477,730.199646 722.326477,697.246399 
	C714.853088,698.643738 707.927185,699.938721 700.856201,701.260803 
	C700.998779,703.165100 701.105347,704.587585 701.210999,705.998535 
	C704.603638,706.669189 707.686646,707.278564 711.075073,707.948425 
	C711.075073,732.579041 711.075073,757.036621 711.075073,782.490601 
M516.773499,802.090576 
	C526.171448,802.090576 535.569397,802.090576 544.788696,802.090576 
	C544.788696,799.620667 544.788696,797.845886 544.788696,795.758362 
	C541.435181,795.758362 538.320068,795.758362 534.854980,795.758362 
	C534.854980,773.528748 534.854980,751.613159 534.854980,729.241272 
	C528.611450,730.455200 522.824890,731.828674 516.960205,732.629333 
	C513.325500,733.125488 512.395508,734.602844 513.646362,738.008057 
	C515.035156,738.311584 516.492798,738.907104 517.945984,738.896118 
	C522.426453,738.862183 523.714844,740.823486 523.588318,745.305054 
	C523.245850,757.437073 523.471008,769.585144 523.471008,781.726807 
	C523.471008,786.348145 523.471008,790.969543 523.471008,795.907898 
	C519.759399,795.907898 516.633301,795.907898 512.969604,795.907898 
	C514.165100,798.236267 510.761536,801.849243 516.773499,802.090576 
M869.688721,786.485107 
	C869.688721,789.455139 869.688721,792.425171 869.688721,795.973267 
	C866.048157,795.973267 862.816650,795.973267 859.644897,795.973267 
	C859.644897,798.301575 859.644897,800.042297 859.644897,801.878540 
	C870.205261,801.878540 880.463257,801.878540 890.793945,801.878540 
	C890.793945,799.792786 890.793945,797.922363 890.793945,795.658264 
	C887.391357,795.658264 884.307739,795.658264 880.890869,795.658264 
	C880.890869,773.329346 880.890869,751.397095 880.890869,729.240356 
	C873.551331,730.665222 866.595764,732.015503 859.474609,733.397949 
	C858.785950,742.057800 867.247314,736.865540 869.688721,741.240540 
	C869.688721,755.548889 869.688721,770.519653 869.688721,786.485107 
M532.368774,713.921509 
	C538.063599,709.592529 538.270081,701.941956 532.411011,700.047058 
	C529.922546,699.242188 525.472107,699.850281 524.061218,701.574158 
	C522.389526,703.616638 522.126404,707.803467 522.892212,710.614258 
	C524.007568,714.708435 527.983826,714.721375 532.368774,713.921509 
M875.479309,714.414307 
	C880.824463,713.390442 883.154053,710.783630 882.815247,706.205688 
	C882.498230,701.922791 879.515137,699.005432 875.312988,699.106812 
	C871.036499,699.209961 868.491333,701.448059 868.017090,705.759338 
	C867.484558,710.601135 869.570923,713.217957 875.479309,714.414307 
z"/>
<path fill="#0B0B0B" opacity="1.000000" stroke="none" 
	d="
M1746.350098,709.113037 
	C1746.251709,737.245178 1746.095215,764.894958 1746.141846,792.544312 
	C1746.147339,795.824280 1745.364380,797.453430 1742.136719,798.727661 
	C1722.534912,806.466187 1703.082642,814.583862 1683.465088,822.281311 
	C1680.804077,823.325439 1677.246338,823.567749 1674.530518,822.755127 
	C1651.786255,815.949524 1629.165039,808.734009 1606.442993,801.852905 
	C1602.983276,800.805176 1601.873657,799.314636 1601.904907,795.663208 
	C1602.154663,766.515869 1602.215088,737.366455 1602.175415,708.217896 
	C1602.171143,705.086670 1603.077637,703.612915 1606.055542,702.430542 
	C1626.260498,694.408142 1646.351196,686.097900 1666.559326,678.083374 
	C1668.486938,677.318909 1671.132446,677.396484 1673.164185,678.010803 
	C1695.096802,684.642517 1716.976440,691.449707 1738.863037,698.233154 
	C1746.400879,700.569519 1746.391357,700.600403 1746.350098,709.113037 
M1674.131226,813.928467 
	C1677.607056,815.233704 1676.980103,812.729675 1676.985352,810.840576 
	C1677.031006,794.200867 1677.079224,777.561218 1677.109131,760.921509 
	C1677.126587,751.125549 1677.112305,741.329651 1677.112305,731.277344 
	C1655.025757,724.406128 1633.109619,717.587952 1610.594849,710.583496 
	C1610.594849,738.841919 1610.594849,766.363831 1610.594849,794.085205 
	C1631.521362,800.623413 1652.408691,807.149414 1674.131226,813.928467 
M1680.677368,733.876221 
	C1680.677368,760.562256 1680.677368,787.248291 1680.677368,814.033691 
	C1681.450684,813.943054 1681.975830,813.990173 1682.411499,813.814697 
	C1699.963135,806.744629 1717.474487,799.572266 1735.083008,792.647339 
	C1738.034302,791.486694 1737.946655,789.585754 1737.949463,787.218079 
	C1737.979248,762.066040 1738.049438,736.914062 1738.096436,711.762024 
	C1738.098389,710.682129 1737.981934,709.601990 1737.898804,708.136292 
	C1719.322754,715.617004 1701.171387,722.898376 1683.066895,730.294067 
	C1682.074341,730.699524 1681.470581,732.056458 1680.677368,733.876221 
M1678.516602,728.127197 
	C1688.398926,724.265869 1698.302124,720.457092 1708.157104,716.527222 
	C1716.744507,713.102783 1725.277588,709.541748 1734.793701,705.648682 
	C1713.177490,698.926880 1692.659790,692.474365 1672.067627,686.268555 
	C1670.250122,685.720825 1667.798706,686.408997 1665.893555,687.161011 
	C1654.621582,691.610779 1643.424438,696.250122 1632.201294,700.823608 
	C1626.428589,703.175964 1620.654175,705.524109 1613.877686,708.282288 
	C1635.947510,715.089844 1656.833862,721.532349 1678.516602,728.127197 
z"/>
<path fill="#080808" opacity="1.000000" stroke="none" 
	d="
M1493.909180,710.745483 
	C1493.886230,709.010132 1493.886230,707.682495 1493.886230,706.511230 
	C1510.438354,706.511230 1526.949829,705.360535 1543.225586,706.827271 
	C1560.304688,708.366394 1570.365234,719.833069 1574.639526,736.053833 
	C1577.918457,748.497559 1577.824585,761.090271 1574.119873,773.507751 
	C1569.122070,790.259277 1557.849121,800.361511 1540.510254,801.605103 
	C1525.152954,802.706543 1509.654053,801.835938 1494.049072,801.835938 
	C1494.049072,799.919922 1494.049072,798.128967 1494.049072,795.987915 
	C1497.197998,795.987915 1500.308838,795.987915 1503.757080,795.987915 
	C1503.757080,767.969421 1503.757080,740.296997 1503.759521,712.623657 
	C1500.485352,712.132874 1497.208740,711.643066 1493.909180,710.745483 
M1516.092773,794.341980 
	C1522.269653,794.627869 1528.460693,795.329224 1534.620483,795.118286 
	C1550.341431,794.579712 1561.701294,784.117188 1562.917847,768.430054 
	C1563.673584,758.686523 1563.630493,748.789795 1562.883545,739.043213 
	C1561.858643,725.670288 1552.197632,714.908997 1539.655762,713.303833 
	C1532.027588,712.327515 1524.172485,713.123779 1516.044312,713.123779 
	C1516.044312,739.837524 1516.044312,766.599182 1516.092773,794.341980 
z"/>
<path fill="#080808" opacity="1.000000" stroke="none" 
	d="
M1240.393066,802.084167 
	C1230.319946,802.089844 1220.684082,802.089844 1210.777588,802.089844 
	C1210.777588,800.010071 1210.777588,798.249146 1210.777588,796.060913 
	C1213.817383,796.060913 1216.909180,796.060913 1220.403564,796.060913 
	C1220.403564,766.602051 1220.403564,737.551086 1220.403564,708.422546 
	C1218.142212,705.067505 1209.976440,709.794556 1210.588623,701.241150 
	C1217.659912,699.906189 1224.608032,698.594543 1231.843018,697.228699 
	C1231.843018,711.739075 1231.843018,726.036011 1231.843018,740.304260 
	C1232.377686,740.385742 1232.868286,740.539429 1232.912476,740.456116 
	C1238.363037,730.188782 1250.441528,727.067383 1262.609253,730.513611 
	C1271.080566,732.913025 1275.222046,739.264587 1275.915649,747.400513 
	C1276.790283,757.659180 1276.661987,768.006714 1276.867065,778.317871 
	C1276.979370,783.968445 1276.887207,789.623169 1276.887207,795.655212 
	C1280.217529,795.655212 1283.302002,795.655212 1286.699219,795.655212 
	C1286.699219,797.887573 1286.699219,799.755066 1286.699219,801.839478 
	C1276.310181,801.839478 1265.902588,801.839478 1255.326416,801.839478 
	C1255.326416,799.814392 1255.326416,798.040039 1255.326416,795.924561 
	C1258.592041,795.924561 1261.715210,795.924561 1264.850464,795.924561 
	C1264.850464,780.311523 1265.450928,765.006592 1264.623291,749.779236 
	C1264.133545,740.768372 1256.548828,736.210205 1246.908325,737.168701 
	C1237.337524,738.120300 1232.083008,743.508850 1232.054321,752.568420 
	C1232.009155,766.879517 1232.042358,781.190979 1232.042358,795.817749 
	C1235.440674,795.817749 1238.567383,795.817749 1242.770874,795.817749 
	C1242.014160,798.259460 1241.422241,800.169006 1240.393066,802.084167 
z"/>
<path fill="#080808" opacity="1.000000" stroke="none" 
	d="
M497.933899,780.928711 
	C492.114502,798.914429 480.055206,806.517334 463.534729,803.062134 
	C456.887482,801.671875 452.383636,797.516174 449.008240,791.966492 
	C444.305115,794.301392 445.638092,803.121643 437.467773,801.882080 
	C437.467773,799.933594 437.467804,798.143372 437.467804,796.353088 
	C437.467804,769.041382 437.324768,741.728271 437.595154,714.419250 
	C437.645844,709.299866 436.660583,706.508301 431.082489,706.748413 
	C429.969208,706.796326 428.829224,706.223206 427.450806,705.872742 
	C427.450806,704.456177 427.450806,703.041138 427.450806,701.203979 
	C434.395813,699.908386 441.370422,698.607239 448.882690,697.205811 
	C448.882690,711.834351 448.882690,726.196899 448.882690,742.044617 
	C456.557281,729.360718 467.084106,727.079407 478.915619,730.494568 
	C491.701691,734.185242 497.346954,744.420471 498.662781,756.705078 
	C499.501038,764.530945 498.289856,772.576355 497.933899,780.928711 
M448.905762,755.622314 
	C448.906464,764.099426 448.576477,772.596130 449.076904,781.043640 
	C449.266815,784.249573 450.601654,788.048462 452.733185,790.362671 
	C461.393372,799.765381 479.005066,797.481262 483.998901,785.776306 
	C489.367249,773.193604 488.694275,759.919739 484.090820,746.982605 
	C483.712067,745.918152 482.942505,744.964844 482.239441,744.048157 
	C477.333557,737.651306 468.397552,735.417542 459.636475,738.361816 
	C451.881012,740.968140 448.942383,745.432800 448.905762,755.622314 
z"/>
<path fill="#0B0B0B" opacity="1.000000" stroke="none" 
	d="
M838.342896,722.832642 
	C838.342896,719.365723 838.342896,716.376343 838.342896,712.994202 
	C825.445557,712.994202 812.733215,712.994202 799.658813,712.994202 
	C799.658813,725.525208 799.658813,738.079041 799.658813,750.868225 
	C808.539856,750.868225 817.484253,750.868225 826.804077,750.868225 
	C826.804077,747.235962 826.804077,743.784607 826.804077,740.229065 
	C829.626038,740.229065 832.072571,740.229065 834.761719,740.229065 
	C834.761719,749.810303 834.761719,759.219910 834.761719,768.823364 
	C832.166504,768.823364 829.725342,768.823364 826.893677,768.823364 
	C826.893677,765.367493 826.893677,761.937378 826.893677,758.245728 
	C817.587585,758.245728 808.666809,758.245728 799.522278,758.245728 
	C799.522278,770.576904 799.522278,782.828796 799.522278,795.591431 
	C803.694885,795.591431 807.765503,795.591431 812.151978,795.591431 
	C812.151978,797.977417 812.151978,799.859802 812.151978,801.923340 
	C800.608582,801.923340 789.136841,801.923340 777.355164,801.923340 
	C777.355164,800.051208 777.355164,798.158325 777.355164,795.937256 
	C780.466187,795.937256 783.583435,795.937256 787.055420,795.937256 
	C787.055420,767.890198 787.055420,740.164795 787.055420,712.171631 
	C783.761963,712.171631 780.621826,712.171631 777.264404,712.171631 
	C777.264404,709.965332 777.264404,708.024658 777.264404,705.942322 
	C800.871338,705.942322 824.328857,705.942322 848.056702,705.942322 
	C848.056702,713.506470 848.056702,720.927185 848.056702,728.666992 
	C845.018677,728.666992 841.960449,728.666992 838.342896,728.666992 
	C838.342896,726.883606 838.342896,725.096924 838.342896,722.832642 
z"/>
<path fill="#0C0C0C" opacity="1.000000" stroke="none" 
	d="
M981.364441,713.138977 
	C981.364441,710.533020 981.364441,708.402161 981.364441,706.032959 
	C1008.333740,706.032959 1034.927246,706.032959 1061.714355,706.032959 
	C1061.714355,713.585693 1061.714355,721.008667 1061.714355,728.708252 
	C1058.469849,728.708252 1055.380371,728.708252 1051.989014,728.708252 
	C1051.989014,723.592529 1051.989014,718.470886 1051.989014,712.977661 
	C1043.960083,712.977661 1036.213257,712.977661 1028.054932,712.977661 
	C1028.054932,740.267517 1028.054932,767.792603 1028.054932,795.737061 
	C1032.156372,795.737061 1036.249512,795.737061 1040.566895,795.737061 
	C1040.566895,797.925415 1040.566895,799.698853 1040.566895,801.788696 
	C1027.999146,801.788696 1015.450378,801.788696 1002.743286,801.788696 
	C1002.743286,799.910706 1002.743286,798.110779 1002.743286,795.859741 
	C1006.947449,795.859741 1011.039551,795.859741 1015.429810,795.859741 
	C1015.429810,768.018372 1015.429810,740.624817 1015.429810,712.916748 
	C1007.527527,712.916748 999.638672,712.916748 991.373840,712.916748 
	C991.373840,718.327026 991.373840,723.440247 991.373840,728.740723 
	C987.932373,728.740723 984.867859,728.740723 981.364441,728.740723 
	C981.364441,723.541870 981.364441,718.577942 981.364441,713.138977 
z"/>
<path fill="#090909" opacity="1.000000" stroke="none" 
	d="
M1447.113403,757.000854 
	C1447.113403,770.109985 1447.113403,782.719116 1447.113403,795.780151 
	C1451.714966,795.780151 1455.803223,795.780151 1460.042847,795.780151 
	C1460.042847,798.031616 1460.042847,799.825684 1460.042847,801.858582 
	C1447.577881,801.858582 1435.133911,801.858582 1422.385254,801.858582 
	C1422.385254,800.031677 1422.385254,798.135742 1422.385254,795.897461 
	C1426.516846,795.897461 1430.635376,795.897461 1434.958374,795.897461 
	C1434.958374,768.121460 1434.958374,740.682678 1434.958374,712.918701 
	C1427.155029,712.918701 1419.411011,712.918701 1411.196655,712.918701 
	C1411.196655,717.947815 1411.196655,723.188416 1411.196655,728.699158 
	C1407.674561,728.699158 1404.609741,728.699158 1401.270996,728.699158 
	C1401.270996,721.253906 1401.270996,713.825256 1401.270996,706.095337 
	C1427.755005,706.095337 1454.300049,706.095337 1481.106445,706.095337 
	C1481.106445,713.540527 1481.106445,720.957886 1481.106445,728.678711 
	C1478.032227,728.678711 1474.977295,728.678711 1471.520996,728.678711 
	C1471.520996,723.525024 1471.520996,718.416809 1471.520996,712.954041 
	C1463.255615,712.954041 1455.377686,712.954041 1447.113403,712.954041 
	C1447.113403,727.585938 1447.113403,742.043396 1447.113403,757.000854 
z"/>
<path fill="#090909" opacity="1.000000" stroke="none" 
	d="
M278.825317,717.783691 
	C272.129791,724.143066 269.508789,732.054565 269.221069,740.503845 
	C268.882263,750.454407 268.657928,760.557617 269.977509,770.380554 
	C271.886841,784.593506 280.583618,792.645569 293.893921,794.677429 
	C307.074097,796.689453 317.186981,791.206848 323.996429,778.372253 
	C324.214508,777.961243 324.555206,777.615356 324.994904,777.031982 
	C326.635223,777.828674 328.225952,778.601257 330.122101,779.522217 
	C325.160339,792.277466 316.587189,800.639587 303.194824,803.028931 
	C287.620758,805.807617 274.049133,801.499817 265.278412,787.998596 
	C260.983917,781.387817 258.075928,773.281677 256.734222,765.475220 
	C254.190887,750.677307 255.316467,735.897644 263.051758,722.400696 
	C271.887115,706.984253 290.811981,699.935059 307.464478,706.027527 
	C311.075195,707.348572 314.259979,709.833862 318.221161,712.117371 
	C318.537506,710.115540 318.846558,708.159851 319.184723,706.019897 
	C322.263824,706.019897 325.354065,706.019897 328.582092,706.019897 
	C328.582092,715.325684 328.582092,724.408020 328.582092,733.734131 
	C325.284882,733.734131 322.204346,733.734131 318.816376,733.734131 
	C318.816376,732.291321 318.826233,730.972534 318.814789,729.653809 
	C318.730103,719.878479 315.040466,714.733337 305.516632,712.534729 
	C296.114624,710.364441 286.964020,710.948059 278.825317,717.783691 
z"/>
<path fill="#060606" opacity="1.000000" stroke="none" 
	d="
M950.348267,739.304504 
	C944.249146,736.338806 938.421570,736.402466 932.657104,738.977356 
	C928.503357,740.832825 924.976990,743.812988 924.893372,748.551636 
	C924.618164,764.157349 924.789734,779.770996 924.789734,795.778137 
	C928.051208,795.778137 931.153625,795.778137 934.503845,795.778137 
	C934.503845,797.932373 934.503845,799.692261 934.503845,801.771729 
	C924.155212,801.771729 913.754456,801.771729 903.144897,801.771729 
	C903.144897,799.973389 903.144897,798.210510 903.144897,796.045166 
	C906.231445,796.045166 909.310791,796.045166 912.725464,796.045166 
	C912.725464,777.281982 912.725464,758.908630 912.725464,740.011841 
	C909.801758,739.390808 906.622314,738.715515 903.195190,737.987549 
	C903.195190,736.551086 903.195190,735.125732 903.195190,733.341187 
	C909.949097,732.016724 916.741943,730.684631 923.880249,729.284790 
	C923.880249,733.087524 923.880249,736.705261 923.880249,740.641479 
	C924.656982,740.377380 925.214172,740.366638 925.418030,740.092773 
	C932.952087,729.973145 943.292236,726.701721 955.319458,730.671265 
	C963.805420,733.472046 968.670654,740.585876 968.951416,751.752075 
	C969.265137,764.235107 969.087769,776.730469 969.122253,789.220459 
	C969.127747,791.212219 969.123047,793.203979 969.123047,795.720825 
	C972.532837,795.720825 975.754822,795.720825 979.162476,795.720825 
	C979.162476,798.011963 979.162476,799.778076 979.162476,801.816528 
	C968.788208,801.816528 958.531738,801.816528 947.988892,801.816528 
	C947.988892,800.014465 947.988892,798.117981 947.988892,795.870483 
	C951.235657,795.870483 954.355652,795.870483 957.656433,795.870483 
	C957.656433,781.255920 957.859192,766.983032 957.550232,752.721252 
	C957.436707,747.481934 955.463684,742.611511 950.348267,739.304504 
z"/>
<path fill="#0A0A0A" opacity="1.000000" stroke="none" 
	d="
M364.513489,801.636963 
	C355.887512,797.452271 353.285828,789.968018 353.052612,781.692505 
	C352.668274,768.051392 352.948334,754.391663 352.948334,740.259705 
	C349.505096,739.471863 346.182983,738.711792 342.719788,737.919373 
	C342.719788,736.371521 342.719788,734.944214 342.719788,733.337769 
	C349.760162,731.977661 356.589874,730.658203 364.038940,729.219116 
	C364.038940,731.162598 364.035553,732.921509 364.039490,734.680359 
	C364.072083,749.332764 363.770081,763.995850 364.234589,778.634583 
	C364.693176,793.086853 376.491943,800.097107 389.314606,794.025879 
	C394.198975,791.713318 397.280029,788.007568 397.306824,782.401123 
	C397.373596,768.436157 397.328827,754.470642 397.328827,740.091553 
	C394.022736,739.381348 390.826508,738.694824 387.395386,737.957764 
	C387.395386,736.490601 387.395386,735.078247 387.395386,733.342529 
	C394.432526,731.997498 401.377197,730.670105 408.734131,729.263977 
	C408.734131,750.612854 408.734131,771.541382 408.734131,791.712280 
	C411.303192,796.167725 419.924286,790.807495 418.876923,799.666809 
	C412.065125,801.002563 405.294800,802.330139 398.064667,803.747925 
	C397.873047,800.170471 397.695099,796.848938 397.447449,792.225281 
	C388.347748,804.413330 377.311340,805.903076 364.513489,801.636963 
z"/>
<path fill="#090909" opacity="1.000000" stroke="none" 
	d="
M638.633423,733.571960 
	C646.445984,729.517822 654.380249,728.332458 662.678223,729.707947 
	C674.421265,731.654480 680.802734,738.967285 680.918274,750.983032 
	C681.060730,765.796997 680.952271,780.613342 680.952271,795.938965 
	C684.324768,795.938965 687.538635,795.938965 690.593201,795.938965 
	C692.706055,801.790222 688.949951,802.586243 685.219543,803.391846 
	C676.797668,805.210632 672.470764,802.273499 669.691284,792.421570 
	C663.105896,803.346863 653.236084,805.250671 642.006287,803.017029 
	C633.735474,801.372070 628.545044,795.375488 627.825500,787.158813 
	C626.910767,776.711670 630.015259,769.736450 638.639832,767.032104 
	C645.656128,764.832275 653.256714,764.430725 660.628845,763.465332 
	C663.380249,763.105042 666.218323,763.406982 669.524597,763.406982 
	C669.194397,754.492676 671.820618,745.197266 663.913086,738.866943 
	C657.473999,733.712097 649.881775,735.344788 641.953247,737.616882 
	C643.214417,739.133484 644.765198,740.145630 644.866516,741.286499 
	C645.128845,744.239258 645.826111,748.093933 644.328003,749.997375 
	C642.835632,751.893555 638.574219,752.992310 636.105774,752.318970 
	C633.975281,751.737854 631.617493,748.355225 631.191895,745.894287 
	C630.223816,740.297180 633.923340,736.650208 638.633423,733.571960 
M669.231628,785.378479 
	C669.231628,779.981934 669.231628,774.585327 669.231628,768.307312 
	C661.954102,769.113647 655.018311,769.568054 648.208374,770.748779 
	C643.785156,771.515747 640.765320,774.759827 640.244690,779.288452 
	C639.685059,784.157471 638.821045,789.336731 643.327148,793.208557 
	C649.621643,798.617065 667.452271,796.745667 669.231628,785.378479 
z"/>
<path fill="#090909" opacity="1.000000" stroke="none" 
	d="
M1398.999512,793.928711 
	C1398.999512,796.891296 1398.999512,799.366394 1398.999512,801.928833 
	C1376.367920,801.928833 1354.101074,801.928833 1331.607544,801.928833 
	C1331.607544,799.990112 1331.607544,798.217041 1331.607544,795.898438 
	C1334.884155,795.898438 1338.102295,795.898438 1341.585449,795.898438 
	C1341.585449,767.811157 1341.585449,740.266479 1341.585449,712.212036 
	C1338.217773,712.212036 1334.977661,712.212036 1331.564453,712.212036 
	C1331.564453,709.916260 1331.564453,708.129395 1331.564453,706.069214 
	C1342.300537,706.069214 1352.897827,706.069214 1363.764404,706.069214 
	C1363.764404,707.898376 1363.764404,709.809875 1363.764404,712.034302 
	C1360.608032,712.034302 1357.498047,712.034302 1354.089600,712.034302 
	C1354.089600,739.856567 1354.089600,767.370300 1354.089600,795.096863 
	C1365.666382,795.096863 1377.078491,795.096863 1388.863037,795.096863 
	C1388.863037,789.436951 1388.863037,783.828552 1388.863037,778.011353 
	C1392.345703,778.011353 1395.458740,778.011353 1398.999512,778.011353 
	C1398.999512,783.215454 1398.999512,788.328369 1398.999512,793.928711 
z"/>
<path fill="#080808" opacity="1.000000" stroke="none" 
	d="
M1099.346191,794.921753 
	C1109.621582,795.331909 1117.192749,791.469604 1122.213623,782.413757 
	C1123.776855,783.322266 1125.122437,784.104309 1126.783569,785.069763 
	C1122.541870,795.469849 1115.165894,801.619446 1104.335083,803.293091 
	C1092.295044,805.153442 1081.772827,802.042542 1074.139404,792.144043 
	C1063.587280,778.460815 1064.234863,753.674438 1075.163330,740.267578 
	C1083.113647,730.514282 1095.849854,726.787231 1107.997314,730.659119 
	C1119.289429,734.258423 1126.911621,744.604004 1127.944458,757.904968 
	C1128.147827,760.523499 1127.973755,763.171326 1127.973755,766.125000 
	C1111.665283,766.125000 1095.567993,766.125000 1079.508789,766.125000 
	C1077.824585,782.322083 1084.907593,792.686584 1099.346191,794.921753 
M1083.775635,759.817993 
	C1094.505127,759.817993 1105.234619,759.817993 1116.286743,759.817993 
	C1116.171997,757.236084 1116.175659,755.254272 1115.981445,753.292114 
	C1114.918335,742.559937 1108.647583,736.227417 1099.164673,735.820068 
	C1085.672119,735.240295 1079.436401,745.759277 1079.312134,757.388000 
	C1079.303589,758.185303 1081.616333,759.007385 1083.775635,759.817993 
z"/>
<path fill="#090909" opacity="1.000000" stroke="none" 
	d="
M1148.263184,741.276001 
	C1158.204346,730.069031 1172.604248,726.253906 1186.118408,731.032166 
	C1194.118896,733.860962 1198.559082,739.650452 1198.250244,746.800903 
	C1198.076416,750.830383 1196.585571,754.043640 1192.391724,755.029297 
	C1188.649292,755.908997 1184.929443,755.667419 1182.735596,751.838196 
	C1180.526611,747.982544 1180.882812,744.173828 1183.798096,740.743652 
	C1184.606079,739.792847 1185.610718,739.009094 1186.625854,738.053955 
	C1168.524414,730.942993 1154.926880,741.180542 1153.456543,756.721313 
	C1152.865967,762.963806 1153.108765,769.400635 1153.896729,775.632080 
	C1155.202759,785.962891 1161.021240,792.324829 1169.894775,794.392883 
	C1179.670776,796.671204 1188.244629,793.277527 1194.191162,784.778809 
	C1194.657593,784.112244 1195.137695,783.455261 1195.836670,782.479309 
	C1197.261353,783.364197 1198.608398,784.200867 1200.126343,785.143677 
	C1195.769653,796.407715 1187.694214,802.640564 1176.132935,803.644836 
	C1163.855469,804.711365 1152.958984,801.016113 1146.731812,789.766968 
	C1137.834717,773.694702 1138.132568,757.367004 1148.263184,741.276001 
z"/>
<path fill="#0A0A0A" opacity="1.000000" stroke="none" 
	d="
M560.101807,747.138916 
	C568.743774,731.656555 585.530640,725.241089 601.644531,731.089600 
	C607.555420,733.234924 612.144714,736.845581 613.563599,743.410400 
	C614.674866,748.552490 612.644958,753.356079 608.771362,754.851257 
	C604.861755,756.360352 600.054871,755.004150 598.101990,751.841003 
	C595.648132,747.866394 596.643188,743.089233 600.770142,739.428223 
	C601.221252,739.027954 601.999451,738.996521 603.179504,738.615112 
	C587.740723,731.272888 571.557129,739.026917 569.334412,754.195374 
	C568.261597,761.516602 568.406006,769.247498 569.444336,776.588440 
	C570.745544,785.787292 576.041565,792.667603 585.792725,794.452332 
	C595.372559,796.205566 603.617493,793.725891 609.333740,785.216248 
	C609.878174,784.405640 610.453430,783.615723 611.244446,782.488464 
	C612.704346,783.403503 614.019958,784.228088 615.522522,785.169922 
	C611.223511,796.278259 603.333435,802.484680 591.973145,803.602051 
	C579.479736,804.830811 568.663330,800.981445 562.066772,789.713135 
	C554.142334,776.176453 554.156616,761.887817 560.101807,747.138916 
z"/>
<path fill="#060606" opacity="1.000000" stroke="none" 
	d="
M711.075073,781.992432 
	C711.075073,757.036621 711.075073,732.579041 711.075073,707.948425 
	C707.686646,707.278564 704.603638,706.669189 701.210999,705.998535 
	C701.105347,704.587585 700.998779,703.165100 700.856201,701.260803 
	C707.927185,699.938721 714.853088,698.643738 722.326477,697.246399 
	C722.326477,730.199646 722.326477,762.749756 722.326477,795.709045 
	C725.908936,795.709045 729.014160,795.709045 732.449097,795.709045 
	C732.449097,797.857178 732.449097,799.600647 732.449097,801.718872 
	C722.245972,801.718872 711.861450,801.718872 701.212158,801.718872 
	C701.212158,800.042786 701.212158,798.287781 701.212158,796.116577 
	C704.157776,796.116577 707.236145,796.116577 711.075073,796.116577 
	C711.075073,791.311523 711.075073,786.901062 711.075073,781.992432 
z"/>
<path fill="#080808" opacity="1.000000" stroke="none" 
	d="
M516.306274,802.090210 
	C510.761536,801.849243 514.165100,798.236267 512.969604,795.907898 
	C516.633301,795.907898 519.759399,795.907898 523.471008,795.907898 
	C523.471008,790.969543 523.471008,786.348145 523.471008,781.726807 
	C523.471008,769.585144 523.245850,757.437073 523.588318,745.305054 
	C523.714844,740.823486 522.426453,738.862183 517.945984,738.896118 
	C516.492798,738.907104 515.035156,738.311584 513.646362,738.008057 
	C512.395508,734.602844 513.325500,733.125488 516.960205,732.629333 
	C522.824890,731.828674 528.611450,730.455200 534.854980,729.241272 
	C534.854980,751.613159 534.854980,773.528748 534.854980,795.758362 
	C538.320068,795.758362 541.435181,795.758362 544.788696,795.758362 
	C544.788696,797.845886 544.788696,799.620667 544.788696,802.090576 
	C535.569397,802.090576 526.171448,802.090576 516.306274,802.090210 
z"/>
<path fill="#060606" opacity="1.000000" stroke="none" 
	d="
M869.688721,785.987793 
	C869.688721,770.519653 869.688721,755.548889 869.688721,741.240540 
	C867.247314,736.865540 858.785950,742.057800 859.474609,733.397949 
	C866.595764,732.015503 873.551331,730.665222 880.890869,729.240356 
	C880.890869,751.397095 880.890869,773.329346 880.890869,795.658264 
	C884.307739,795.658264 887.391357,795.658264 890.793945,795.658264 
	C890.793945,797.922363 890.793945,799.792786 890.793945,801.878540 
	C880.463257,801.878540 870.205261,801.878540 859.644897,801.878540 
	C859.644897,800.042297 859.644897,798.301575 859.644897,795.973267 
	C862.816650,795.973267 866.048157,795.973267 869.688721,795.973267 
	C869.688721,792.425171 869.688721,789.455139 869.688721,785.987793 
z"/>
<path fill="#0A0A0A" opacity="1.000000" stroke="none" 
	d="
M532.009277,713.999634 
	C527.983826,714.721375 524.007568,714.708435 522.892212,710.614258 
	C522.126404,707.803467 522.389526,703.616638 524.061218,701.574158 
	C525.472107,699.850281 529.922546,699.242188 532.411011,700.047058 
	C538.270081,701.941956 538.063599,709.592529 532.009277,713.999634 
z"/>
<path fill="#0A0A0A" opacity="1.000000" stroke="none" 
	d="
M875.107666,714.391235 
	C869.570923,713.217957 867.484558,710.601135 868.017090,705.759338 
	C868.491333,701.448059 871.036499,699.209961 875.312988,699.106812 
	C879.515137,699.005432 882.498230,701.922791 882.815247,706.205688 
	C883.154053,710.783630 880.824463,713.390442 875.107666,714.391235 
z"/>
<path fill="#F7F7F7" opacity="1.000000" stroke="none" 
	d="
M1673.713623,813.801880 
	C1652.408691,807.149414 1631.521362,800.623413 1610.594849,794.085205 
	C1610.594849,766.363831 1610.594849,738.841919 1610.594849,710.583496 
	C1633.109619,717.587952 1655.025757,724.406128 1677.112305,731.277344 
	C1677.112305,741.329651 1677.126587,751.125549 1677.109131,760.921509 
	C1677.079224,777.561218 1677.031006,794.200867 1676.985352,810.840576 
	C1676.980103,812.729675 1677.607056,815.233704 1673.713623,813.801880 
z"/>
<path fill="#F7F7F7" opacity="1.000000" stroke="none" 
	d="
M1680.681641,733.423340 
	C1681.470581,732.056458 1682.074341,730.699524 1683.066895,730.294067 
	C1701.171387,722.898376 1719.322754,715.617004 1737.898804,708.136292 
	C1737.981934,709.601990 1738.098389,710.682129 1738.096436,711.762024 
	C1738.049438,736.914062 1737.979248,762.066040 1737.949463,787.218079 
	C1737.946655,789.585754 1738.034302,791.486694 1735.083008,792.647339 
	C1717.474487,799.572266 1699.963135,806.744629 1682.411499,813.814697 
	C1681.975830,813.990173 1681.450684,813.943054 1680.677368,814.033691 
	C1680.677368,787.248291 1680.677368,760.562256 1680.681641,733.423340 
z"/>
<path fill="#F6F6F6" opacity="1.000000" stroke="none" 
	d="
M1678.118408,728.051025 
	C1656.833862,721.532349 1635.947510,715.089844 1613.877686,708.282288 
	C1620.654175,705.524109 1626.428589,703.175964 1632.201294,700.823608 
	C1643.424438,696.250122 1654.621582,691.610779 1665.893555,687.161011 
	C1667.798706,686.408997 1670.250122,685.720825 1672.067627,686.268555 
	C1692.659790,692.474365 1713.177490,698.926880 1734.793701,705.648682 
	C1725.277588,709.541748 1716.744507,713.102783 1708.157104,716.527222 
	C1698.302124,720.457092 1688.398926,724.265869 1678.118408,728.051025 
z"/>
<path fill="#F7F7F7" opacity="1.000000" stroke="none" 
	d="
M1516.068604,793.851379 
	C1516.044312,766.599182 1516.044312,739.837524 1516.044312,713.123779 
	C1524.172485,713.123779 1532.027588,712.327515 1539.655762,713.303833 
	C1552.197632,714.908997 1561.858643,725.670288 1562.883545,739.043213 
	C1563.630493,748.789795 1563.673584,758.686523 1562.917847,768.430054 
	C1561.701294,784.117188 1550.341431,794.579712 1534.620483,795.118286 
	C1528.460693,795.329224 1522.269653,794.627869 1516.068604,793.851379 
z"/>
<path fill="#F7F7F7" opacity="1.000000" stroke="none" 
	d="
M448.905823,755.143555 
	C448.942383,745.432800 451.881012,740.968140 459.636475,738.361816 
	C468.397552,735.417542 477.333557,737.651306 482.239441,744.048157 
	C482.942505,744.964844 483.712067,745.918152 484.090820,746.982605 
	C488.694275,759.919739 489.367249,773.193604 483.998901,785.776306 
	C479.005066,797.481262 461.393372,799.765381 452.733185,790.362671 
	C450.601654,788.048462 449.266815,784.249573 449.076904,781.043640 
	C448.576477,772.596130 448.906464,764.099426 448.905823,755.143555 
z"/>
<path fill="#F3F3F3" opacity="1.000000" stroke="none" 
	d="
M669.159302,785.785278 
	C667.452271,796.745667 649.621643,798.617065 643.327148,793.208557 
	C638.821045,789.336731 639.685059,784.157471 640.244690,779.288452 
	C640.765320,774.759827 643.785156,771.515747 648.208374,770.748779 
	C655.018311,769.568054 661.954102,769.113647 669.231628,768.307312 
	C669.231628,774.585327 669.231628,779.981934 669.159302,785.785278 
z"/>
<path fill="#F3F3F3" opacity="1.000000" stroke="none" 
	d="
M1083.312500,759.817932 
	C1081.616333,759.007385 1079.303589,758.185303 1079.312134,757.388000 
	C1079.436401,745.759277 1085.672119,735.240295 1099.164673,735.820068 
	C1108.647583,736.227417 1114.918335,742.559937 1115.981445,753.292114 
	C1116.175659,755.254272 1116.171997,757.236084 1116.286743,759.817993 
	C1105.234619,759.817993 1094.505127,759.817993 1083.312500,759.817932 
z"/>
</svg>